<svg width="459" height="461" viewBox="50 50 359 361" fill="none" xmlns="http://www.w3.org/2000/svg">
<path d="M392.236 231.5C392.236 321.377 319.377 394.236 229.5 394.236C139.623 394.236 66.7636 321.377 66.7636 231.5C66.7636 141.623 139.623 68.7636 229.5 68.7636C319.377 68.7636 392.236 141.623 392.236 231.5ZM131.858 231.5C131.858 285.426 175.574 329.142 229.5 329.142C283.426 329.142 327.142 285.426 327.142 231.5C327.142 177.574 283.426 133.858 229.5 133.858C175.574 133.858 131.858 177.574 131.858 231.5Z" fill="url(#paint0_linear_6812_28119)"/>
<path d="M66.9948 215.498C65.3157 232.551 66.331 249.762 70.0035 266.498L133.802 252.499C131.599 242.457 130.989 232.131 131.997 221.899L66.9948 215.498Z" fill="url(#paint1_radial_6812_28119)"/>
<path d="M70.0035 266.498C71.1032 271.51 72.4386 276.467 74.005 281.353L136.203 261.412C135.263 258.48 134.462 255.506 133.802 252.499L70.0035 266.498Z" fill="#FCDDEC"/>
<path d="M208.536 69.5605C182.98 72.8688 158.57 82.1785 137.302 96.7284L174.181 150.637C186.942 141.907 201.588 136.321 216.922 134.336L208.536 69.5605Z" fill="url(#paint2_linear_6812_28119)"/>
<path d="M137.302 96.7283C119.603 108.836 104.463 124.311 92.7449 142.27C81.027 160.229 72.9611 180.32 69.0078 201.396L133.205 213.438C135.577 200.792 140.416 188.738 147.447 177.962C154.478 167.187 163.562 157.902 174.181 150.637L137.302 96.7283Z" fill="#CC215B"/>
<path d="M68.5069 202.202C67.7349 206.754 67.1564 211.338 66.7729 215.939L131.864 221.364C132.094 218.603 132.441 215.853 132.904 213.121L68.5069 202.202Z" fill="url(#paint3_linear_6812_28119)"/>
<defs>
<linearGradient id="paint0_linear_6812_28119" x1="66.7636" y1="168.033" x2="399.728" y2="197.609" gradientUnits="userSpaceOnUse">
<stop stop-color="#A26BFA"/>
<stop offset="1" stop-color="#4F06C6"/>
</linearGradient>
<radialGradient id="paint1_radial_6812_28119" cx="0" cy="0" r="1" gradientUnits="userSpaceOnUse" gradientTransform="translate(218.753 239.719) rotate(-11.1085) scale(159.158 431.344)">
<stop stop-color="#FFE68E"/>
<stop offset="1" stop-color="#F9AB34"/>
</radialGradient>
<linearGradient id="paint2_linear_6812_28119" x1="77.8196" y1="319.322" x2="309.551" y2="76.8275" gradientUnits="userSpaceOnUse">
<stop stop-color="#C5FFAA"/>
<stop offset="1" stop-color="#00BAC6"/>
</linearGradient>
<linearGradient id="paint3_linear_6812_28119" x1="77.8196" y1="317.322" x2="309.551" y2="74.8275" gradientUnits="userSpaceOnUse">
<stop stop-color="#0F5EF9"/>
<stop offset="1" stop-color="#2FECE6"/>
</linearGradient>
</defs>
</svg>
