<svg width="26" height="26" viewBox="0 0 26 26" fill="none" xmlns="http://www.w3.org/2000/svg">
<path d="M11.4833 15.5833C11.8161 15.8453 12.1495 16.1081 12.4834 16.3707C12.135 16.7337 11.786 17.0972 11.4386 17.46C11.4062 17.4951 11.3761 17.5317 11.3443 17.5674L11.3611 17.3271C11.4009 16.7463 11.4412 16.1644 11.4832 15.5833L11.4833 15.5833ZM14.2218 10.4612C12.5285 11.5893 10.8352 12.7207 9.14109 13.8482C9.10665 13.8709 9.06915 13.8884 9.03082 13.9068C9.25258 14.6561 9.47453 15.4056 9.69568 16.1552C9.8537 16.6828 10.0177 17.2093 10.1673 17.739C10.229 17.9588 10.3359 18.0763 10.5616 18.0348C10.6241 17.1381 10.6842 16.2422 10.7481 15.3451C10.7555 15.2406 10.7672 15.1345 10.7793 15.0297C10.6835 14.9717 10.7256 14.8607 10.7588 14.8241C10.8172 14.7604 10.8758 14.6955 10.9342 14.631C10.9551 14.6104 10.9768 14.5896 10.9971 14.5693C11.0264 14.537 11.0549 14.5047 11.084 14.4727C11.2242 14.3348 11.3638 14.1945 11.504 14.0562C11.5839 13.9765 11.6646 13.8964 11.745 13.817C11.9624 13.602 12.1795 13.387 12.4008 13.1755C12.9632 12.6356 13.537 12.1078 14.1005 11.5701C14.8188 10.8836 15.5356 10.1945 16.2471 9.50021C16.2994 9.42357 16.3332 9.32485 16.3791 9.24042C16.2516 9.25839 16.102 9.23609 16.0008 9.29909C15.4015 9.67621 14.8123 10.0683 14.2218 10.4612L14.2218 10.4612ZM25.6019 13C25.6019 20.1797 20.0918 26 13.2947 26C6.49758 26 0.987488 20.1797 0.987488 13C0.987488 5.81971 6.49706 0 13.2947 0C20.0918 0 25.6019 5.82027 25.6019 13ZM18.7901 7.82078C18.7835 7.77121 18.779 7.72033 18.7696 7.67141C18.6612 7.11958 18.3751 6.95288 17.8625 7.1382C17.7873 7.16483 17.7102 7.18236 17.634 7.20423C17.3481 7.32893 17.0652 7.4625 16.7753 7.57702C16.2946 7.76861 15.8091 7.94765 15.3244 8.13233C15.0289 8.26245 14.7354 8.3984 14.4372 8.52157C13.69 8.83007 12.9415 9.1327 12.193 9.43795C10.6529 10.0651 9.11243 10.6921 7.571 11.3192C7.22484 11.4604 6.87581 11.5941 6.53336 11.7446C6.23229 11.8758 5.92485 12.0031 5.64756 12.1793C5.5248 12.2572 5.38952 12.462 5.40367 12.5921C5.4172 12.7233 5.60718 12.8357 5.7236 12.953C5.74471 12.9745 5.78099 12.9812 5.81152 12.9911C6.62802 13.2581 7.44456 13.525 8.26168 13.7913C8.25717 13.8814 8.26701 13.9731 8.29366 14.0641L8.59063 15.0705L8.98106 16.3911C9.02697 16.5443 9.07308 16.6948 9.11817 16.8455C9.22925 17.2133 9.34464 17.5932 9.44958 17.9649C9.6781 18.7716 10.2946 18.8339 10.4782 18.8339C10.5055 18.8339 10.5346 18.832 10.5635 18.8309C10.5917 18.8322 10.6198 18.833 10.6477 18.833C11.1193 18.833 11.4222 18.5588 11.6025 18.3944C11.6357 18.3637 11.6675 18.3356 11.6905 18.3169C11.7278 18.2875 11.7628 18.2555 11.7927 18.2197C11.8163 18.194 11.8376 18.1673 11.861 18.1418C11.8989 18.0972 11.9343 18.0552 11.9659 18.0223C12.2401 17.7355 12.5136 17.4497 12.7884 17.1635L13.1138 16.8243C13.1598 16.8578 13.2055 16.8909 13.2516 16.9243C13.9923 17.5084 14.7317 18.0953 15.4751 18.6763C16.0299 19.1095 16.4176 18.9971 16.6861 18.3351C16.8005 17.7768 16.914 17.2172 17.0276 16.6601C17.1315 16.1031 17.2344 15.5476 17.3372 14.9917C17.4034 14.6862 17.4686 14.3799 17.5338 14.0749C17.7072 13.2146 17.8802 12.3534 18.0527 11.4926C18.1089 11.2179 18.1638 10.9436 18.2196 10.6689C18.2331 10.6037 18.2493 10.5381 18.2616 10.4725C18.4384 9.58887 18.6143 8.70513 18.7901 7.82079L18.7901 7.82078Z" fill="white"/>
</svg>
