<svg width="42" height="42" viewBox="0 0 42 42" fill="none" xmlns="http://www.w3.org/2000/svg">
<circle cx="21" cy="21" r="21" fill="#FFFFFF"/>
<path d="M17.9091 25.1731C18.4771 25.5962 19.046 26.0208 19.6157 26.4449C19.0212 27.0314 18.4256 27.6185 17.8329 28.2047C17.7776 28.2613 17.7262 28.3204 17.672 28.3781L17.7007 27.9899C17.7685 27.0517 17.8374 26.1117 17.9091 25.173L17.9091 25.1731ZM22.5819 16.8989C19.6927 18.7212 16.8033 20.5489 13.9126 22.3701C13.8539 22.4068 13.7899 22.4351 13.7245 22.4649C14.1029 23.6753 14.4816 24.8859 14.8589 26.0969C15.1286 26.9492 15.4083 27.7997 15.6636 28.6554C15.7689 29.0103 15.9514 29.2002 16.3365 29.1331C16.4431 27.6846 16.5456 26.2375 16.6547 24.7883C16.6673 24.6194 16.6872 24.448 16.7079 24.2788C16.5445 24.1851 16.6162 24.0057 16.6729 23.9466C16.7726 23.8438 16.8726 23.7388 16.9722 23.6346C17.0079 23.6014 17.045 23.5678 17.0796 23.535C17.1296 23.4829 17.1782 23.4307 17.2279 23.379C17.4671 23.1562 17.7052 22.9296 17.9444 22.7061C18.0808 22.5775 18.2186 22.4481 18.3557 22.3197C18.7267 21.9725 19.0971 21.6252 19.4748 21.2836C20.4344 20.4114 21.4135 19.5588 22.3749 18.6901C23.6006 17.5811 24.8236 16.4681 26.0378 15.3465C26.127 15.2227 26.1847 15.0632 26.263 14.9268C26.0455 14.9559 25.7902 14.9198 25.6174 15.0216C24.5949 15.6308 23.5895 16.2641 22.582 16.8989L22.5819 16.8989ZM42 21C42 32.598 32.598 42 21 42C9.40197 42 0 32.598 0 21C0 9.40108 9.40108 0 21 0C32.598 0 42 9.40197 42 21ZM30.3769 12.6336C30.3657 12.5535 30.358 12.4713 30.3419 12.3923C30.1569 11.5009 29.6687 11.2316 28.7941 11.5309C28.6658 11.574 28.5343 11.6023 28.4042 11.6376C27.9164 11.839 27.4337 12.0548 26.9389 12.2398C26.1189 12.5493 25.2904 12.8385 24.4634 13.1368C23.9591 13.347 23.4583 13.5666 22.9495 13.7656C21.6745 14.264 20.3973 14.7528 19.1202 15.2459C16.4922 16.259 13.8637 17.2718 11.2336 18.2849C10.6429 18.5129 10.0473 18.729 9.46302 18.972C8.94929 19.184 8.4247 19.3896 7.95156 19.6743C7.74208 19.8002 7.51127 20.131 7.53541 20.3412C7.55849 20.5531 7.88267 20.7346 8.08131 20.9241C8.11733 20.9587 8.17923 20.9696 8.23133 20.9857C9.62453 21.4169 11.0178 21.8481 12.4121 22.2782C12.4044 22.4237 12.4212 22.572 12.4666 22.7189L12.9734 24.3447L13.6396 26.4779C13.7179 26.7255 13.7966 26.9685 13.8735 27.2119C14.0631 27.8061 14.26 28.4198 14.439 29.0202C14.8289 30.3233 15.8808 30.424 16.1942 30.424C16.2407 30.424 16.2903 30.4209 16.3396 30.4191C16.3879 30.4212 16.4358 30.4226 16.4834 30.4226C17.288 30.4226 17.8049 29.9795 18.1126 29.7141C18.1693 29.6644 18.2235 29.619 18.2627 29.5889C18.3263 29.5413 18.3861 29.4896 18.4372 29.4319C18.4774 29.3903 18.5138 29.3472 18.5536 29.306C18.6183 29.2339 18.6788 29.1661 18.7327 29.113C19.2006 28.6496 19.6671 28.188 20.1361 27.7257L20.6914 27.1777C20.7697 27.2319 20.8477 27.2854 20.9264 27.3392C22.1902 28.2827 23.452 29.2308 24.7204 30.1694C25.6671 30.8692 26.3287 30.6877 26.7868 29.6183C26.982 28.7164 27.1757 27.8124 27.3695 26.9125C27.5468 26.0127 27.7223 25.1154 27.8979 24.2174C28.0108 23.7239 28.122 23.2291 28.2332 22.7364C28.5291 21.3467 28.8242 19.9555 29.1187 18.565C29.2145 18.1212 29.3082 17.6781 29.4034 17.2344C29.4264 17.1291 29.4541 17.0232 29.4751 16.9172C29.7769 15.4897 30.0769 14.0621 30.3769 12.6336L30.3769 12.6336Z" fill="#3E9EC7"/>
</svg>
