<svg width="42" height="42" viewBox="0 0 42 42" fill="none" xmlns="http://www.w3.org/2000/svg">
<circle cx="21" cy="21" r="21" fill="#3E9EC7"/>
<path d="M32.953 13.5701C32.0545 13.9657 31.1026 14.2268 30.128 14.3451C31.1541 13.7283 31.9224 12.7611 32.291 11.6221C31.34 12.1771 30.286 12.5811 29.164 12.8061C28.4238 12.0145 27.4429 11.4895 26.3736 11.3126C25.3044 11.1357 24.2067 11.3167 23.2509 11.8277C22.2952 12.3386 21.5349 13.1508 21.0881 14.1382C20.6412 15.1256 20.533 16.2329 20.78 17.2881C16.69 17.0951 13.067 15.1301 10.64 12.1621C10.1988 12.9119 9.96866 13.7671 9.974 14.6371C9.974 16.3471 10.844 17.8501 12.162 18.7331C11.3809 18.7082 10.617 18.497 9.934 18.1171V18.1771C9.93356 19.3135 10.3263 20.415 11.0455 21.2948C11.7647 22.1747 12.7662 22.7786 13.88 23.0041C13.1583 23.1975 12.4024 23.2265 11.668 23.0891C11.9841 24.0671 12.5977 24.922 13.423 25.5346C14.2484 26.1471 15.2444 26.4868 16.272 26.5061C14.5315 27.872 12.3825 28.6134 10.17 28.6111C9.78 28.6111 9.391 28.5881 9 28.5441C11.2557 29.9884 13.8785 30.7551 16.557 30.7531C25.61 30.7531 30.555 23.2571 30.555 16.7681C30.555 16.5581 30.555 16.3481 30.54 16.1381C31.506 15.443 32.3392 14.5799 33 13.5901L32.953 13.5701Z" fill="white"/>
</svg>
